<svg id="visual" viewBox="0 0 900 600" width="900" height="600" xmlns="http://www.w3.org/2000/svg"
    xmlns:xlink="http://www.w3.org/1999/xlink" version="1.1">
    <rect x="0" y="0" width="900" height="600" fill="#1c0000"></rect>
    <path
        d="M0 518L47 518L47 550L95 550L95 487L142 487L142 443L189 443L189 448L237 448L237 533L284 533L284 522L332 522L332 441L379 441L379 474L426 474L426 447L474 447L474 551L521 551L521 515L568 515L568 486L616 486L616 535L663 535L663 523L711 523L711 560L758 560L758 546L805 546L805 438L853 438L853 426L900 426L900 493L900 0L900 0L853 0L853 0L805 0L805 0L758 0L758 0L711 0L711 0L663 0L663 0L616 0L616 0L568 0L568 0L521 0L521 0L474 0L474 0L426 0L426 0L379 0L379 0L332 0L332 0L284 0L284 0L237 0L237 0L189 0L189 0L142 0L142 0L95 0L95 0L47 0L47 0L0 0Z"
        fill="#220200"></path>
    <path
        d="M0 369L47 369L47 404L95 404L95 379L142 379L142 399L189 399L189 474L237 474L237 459L284 459L284 375L332 375L332 415L379 415L379 453L426 453L426 381L474 381L474 375L521 375L521 446L568 446L568 462L616 462L616 461L663 461L663 448L711 448L711 382L758 382L758 416L805 416L805 356L853 356L853 417L900 417L900 447L900 0L900 0L853 0L853 0L805 0L805 0L758 0L758 0L711 0L711 0L663 0L663 0L616 0L616 0L568 0L568 0L521 0L521 0L474 0L474 0L426 0L426 0L379 0L379 0L332 0L332 0L284 0L284 0L237 0L237 0L189 0L189 0L142 0L142 0L95 0L95 0L47 0L47 0L0 0Z"
        fill="#260300"></path>
    <path
        d="M0 415L47 415L47 417L95 417L95 411L142 411L142 390L189 390L189 368L237 368L237 290L284 290L284 352L332 352L332 421L379 421L379 382L426 382L426 327L474 327L474 379L521 379L521 315L568 315L568 410L616 410L616 409L663 409L663 397L711 397L711 309L758 309L758 409L805 409L805 318L853 318L853 330L900 330L900 333L900 0L900 0L853 0L853 0L805 0L805 0L758 0L758 0L711 0L711 0L663 0L663 0L616 0L616 0L568 0L568 0L521 0L521 0L474 0L474 0L426 0L426 0L379 0L379 0L332 0L332 0L284 0L284 0L237 0L237 0L189 0L189 0L142 0L142 0L95 0L95 0L47 0L47 0L0 0Z"
        fill="#2a0501"></path>
    <path
        d="M0 343L47 343L47 241L95 241L95 324L142 324L142 289L189 289L189 308L237 308L237 256L284 256L284 356L332 356L332 224L379 224L379 276L426 276L426 346L474 346L474 307L521 307L521 259L568 259L568 254L616 254L616 339L663 339L663 251L711 251L711 351L758 351L758 220L805 220L805 292L853 292L853 297L900 297L900 238L900 0L900 0L853 0L853 0L805 0L805 0L758 0L758 0L711 0L711 0L663 0L663 0L616 0L616 0L568 0L568 0L521 0L521 0L474 0L474 0L426 0L426 0L379 0L379 0L332 0L332 0L284 0L284 0L237 0L237 0L189 0L189 0L142 0L142 0L95 0L95 0L47 0L47 0L0 0Z"
        fill="#2e0501"></path>
    <path
        d="M0 213L47 213L47 191L95 191L95 192L142 192L142 248L189 248L189 211L237 211L237 252L284 252L284 175L332 175L332 157L379 157L379 222L426 222L426 254L474 254L474 168L521 168L521 261L568 261L568 162L616 162L616 153L663 153L663 203L711 203L711 241L758 241L758 152L805 152L805 263L853 263L853 206L900 206L900 230L900 0L900 0L853 0L853 0L805 0L805 0L758 0L758 0L711 0L711 0L663 0L663 0L616 0L616 0L568 0L568 0L521 0L521 0L474 0L474 0L426 0L426 0L379 0L379 0L332 0L332 0L284 0L284 0L237 0L237 0L189 0L189 0L142 0L142 0L95 0L95 0L47 0L47 0L0 0Z"
        fill="#320501"></path>
    <path
        d="M0 155L47 155L47 113L95 113L95 163L142 163L142 176L189 176L189 110L237 110L237 141L284 141L284 193L332 193L332 173L379 173L379 128L426 128L426 150L474 150L474 89L521 89L521 194L568 194L568 184L616 184L616 100L663 100L663 135L711 135L711 138L758 138L758 173L805 173L805 154L853 154L853 143L900 143L900 149L900 0L900 0L853 0L853 0L805 0L805 0L758 0L758 0L711 0L711 0L663 0L663 0L616 0L616 0L568 0L568 0L521 0L521 0L474 0L474 0L426 0L426 0L379 0L379 0L332 0L332 0L284 0L284 0L237 0L237 0L189 0L189 0L142 0L142 0L95 0L95 0L47 0L47 0L0 0Z"
        fill="#370401"></path>
    <path
        d="M0 44L47 44L47 95L95 95L95 67L142 67L142 130L189 130L189 116L237 116L237 130L284 130L284 108L332 108L332 22L379 22L379 23L426 23L426 93L474 93L474 42L521 42L521 39L568 39L568 101L616 101L616 24L663 24L663 120L711 120L711 128L758 128L758 101L805 101L805 14L853 14L853 49L900 49L900 97L900 0L900 0L853 0L853 0L805 0L805 0L758 0L758 0L711 0L711 0L663 0L663 0L616 0L616 0L568 0L568 0L521 0L521 0L474 0L474 0L426 0L426 0L379 0L379 0L332 0L332 0L284 0L284 0L237 0L237 0L189 0L189 0L142 0L142 0L95 0L95 0L47 0L47 0L0 0Z"
        fill="#3b0300"></path>
</svg>