<svg id="visual" viewBox="0 0 900 600" width="900" height="600" xmlns="http://www.w3.org/2000/svg"
    xmlns:xlink="http://www.w3.org/1999/xlink" version="1.1">
    <rect x="0" y="0" width="900" height="600" fill="#1c0000"></rect>
    <path
        d="M123 600L75 600L75 568L168 568L168 537L235 537L235 505L228 505L228 474L100 474L100 442L116 442L116 411L238 411L238 379L188 379L188 347L229 347L229 316L74 316L74 284L127 284L127 253L171 253L171 221L97 221L97 189L116 189L116 158L60 158L60 126L80 126L80 95L242 95L242 63L261 63L261 32L160 32L160 0L900 0L900 32L900 32L900 63L900 63L900 95L900 95L900 126L900 126L900 158L900 158L900 189L900 189L900 221L900 221L900 253L900 253L900 284L900 284L900 316L900 316L900 347L900 347L900 379L900 379L900 411L900 411L900 442L900 442L900 474L900 474L900 505L900 505L900 537L900 537L900 568L900 568L900 600L900 600Z"
        fill="#220200"></path>
    <path
        d="M346 600L294 600L294 568L331 568L331 537L301 537L301 505L189 505L189 474L211 474L211 442L337 442L337 411L277 411L277 379L220 379L220 347L328 347L328 316L337 316L337 284L230 284L230 253L207 253L207 221L209 221L209 189L228 189L228 158L327 158L327 126L276 126L276 95L366 95L366 63L274 63L274 32L229 32L229 0L900 0L900 32L900 32L900 63L900 63L900 95L900 95L900 126L900 126L900 158L900 158L900 189L900 189L900 221L900 221L900 253L900 253L900 284L900 284L900 316L900 316L900 347L900 347L900 379L900 379L900 411L900 411L900 442L900 442L900 474L900 474L900 505L900 505L900 537L900 537L900 568L900 568L900 600L900 600Z"
        fill="#260300"></path>
    <path
        d="M276 600L275 600L275 568L282 568L282 537L314 537L314 505L347 505L347 474L465 474L465 442L371 442L371 411L267 411L267 379L327 379L327 347L409 347L409 316L331 316L331 284L427 284L427 253L284 253L284 221L286 221L286 189L304 189L304 158L436 158L436 126L286 126L286 95L423 95L423 63L404 63L404 32L399 32L399 0L900 0L900 32L900 32L900 63L900 63L900 95L900 95L900 126L900 126L900 158L900 158L900 189L900 189L900 221L900 221L900 253L900 253L900 284L900 284L900 316L900 316L900 347L900 347L900 379L900 379L900 411L900 411L900 442L900 442L900 474L900 474L900 505L900 505L900 537L900 537L900 568L900 568L900 600L900 600Z"
        fill="#2a0501"></path>
    <path
        d="M385 600L538 600L538 568L414 568L414 537L466 537L466 505L438 505L438 474L515 474L515 442L366 442L366 411L564 411L564 379L486 379L486 347L381 347L381 316L438 316L438 284L512 284L512 253L519 253L519 221L392 221L392 189L523 189L523 158L373 158L373 126L570 126L570 95L461 95L461 63L453 63L453 32L543 32L543 0L900 0L900 32L900 32L900 63L900 63L900 95L900 95L900 126L900 126L900 158L900 158L900 189L900 189L900 221L900 221L900 253L900 253L900 284L900 284L900 316L900 316L900 347L900 347L900 379L900 379L900 411L900 411L900 442L900 442L900 474L900 474L900 505L900 505L900 537L900 537L900 568L900 568L900 600L900 600Z"
        fill="#2e0501"></path>
    <path
        d="M580 600L613 600L613 568L611 568L611 537L527 537L527 505L582 505L582 474L521 474L521 442L636 442L636 411L663 411L663 379L566 379L566 347L519 347L519 316L647 316L647 284L508 284L508 253L656 253L656 221L670 221L670 189L595 189L595 158L537 158L537 126L672 126L672 95L505 95L505 63L591 63L591 32L554 32L554 0L900 0L900 32L900 32L900 63L900 63L900 95L900 95L900 126L900 126L900 158L900 158L900 189L900 189L900 221L900 221L900 253L900 253L900 284L900 284L900 316L900 316L900 347L900 347L900 379L900 379L900 411L900 411L900 442L900 442L900 474L900 474L900 505L900 505L900 537L900 537L900 568L900 568L900 600L900 600Z"
        fill="#320501"></path>
    <path
        d="M667 600L730 600L730 568L655 568L655 537L636 537L636 505L735 505L735 474L688 474L688 442L610 442L610 411L640 411L640 379L707 379L707 347L675 347L675 316L767 316L767 284L609 284L609 253L623 253L623 221L750 221L750 189L697 189L697 158L693 158L693 126L639 126L639 95L668 95L668 63L685 63L685 32L676 32L676 0L900 0L900 32L900 32L900 63L900 63L900 95L900 95L900 126L900 126L900 158L900 158L900 189L900 189L900 221L900 221L900 253L900 253L900 284L900 284L900 316L900 316L900 347L900 347L900 379L900 379L900 411L900 411L900 442L900 442L900 474L900 474L900 505L900 505L900 537L900 537L900 568L900 568L900 600L900 600Z"
        fill="#370401"></path>
    <path
        d="M834 600L758 600L758 568L799 568L799 537L705 537L705 505L725 505L725 474L704 474L704 442L737 442L737 411L867 411L867 379L865 379L865 347L760 347L760 316L836 316L836 284L842 284L842 253L748 253L748 221L864 221L864 189L719 189L719 158L707 158L707 126L748 126L748 95L878 95L878 63L826 63L826 32L754 32L754 0L900 0L900 32L900 32L900 63L900 63L900 95L900 95L900 126L900 126L900 158L900 158L900 189L900 189L900 221L900 221L900 253L900 253L900 284L900 284L900 316L900 316L900 347L900 347L900 379L900 379L900 411L900 411L900 442L900 442L900 474L900 474L900 505L900 505L900 537L900 537L900 568L900 568L900 600L900 600Z"
        fill="#3b0300"></path>
</svg>