<svg id="visual" viewBox="0 0 900 600" width="900" height="600" xmlns="http://www.w3.org/2000/svg"
    xmlns:xlink="http://www.w3.org/1999/xlink" version="1.1">
    <rect x="0" y="0" width="900" height="600" fill="#1c0000"></rect>
    <path
        d="M779 0L827 0L827 32L734 32L734 63L667 63L667 95L674 95L674 126L802 126L802 158L786 158L786 189L664 189L664 221L714 221L714 253L673 253L673 284L828 284L828 316L775 316L775 347L731 347L731 379L805 379L805 411L786 411L786 442L842 442L842 474L822 474L822 505L660 505L660 537L641 537L641 568L742 568L742 600L0 600L0 568L0 568L0 537L0 537L0 505L0 505L0 474L0 474L0 442L0 442L0 411L0 411L0 379L0 379L0 347L0 347L0 316L0 316L0 284L0 284L0 253L0 253L0 221L0 221L0 189L0 189L0 158L0 158L0 126L0 126L0 95L0 95L0 63L0 63L0 32L0 32L0 0L0 0Z"
        fill="#220200"></path>
    <path
        d="M556 0L608 0L608 32L571 32L571 63L601 63L601 95L713 95L713 126L691 126L691 158L565 158L565 189L625 189L625 221L682 221L682 253L574 253L574 284L565 284L565 316L672 316L672 347L695 347L695 379L693 379L693 411L674 411L674 442L575 442L575 474L626 474L626 505L536 505L536 537L628 537L628 568L673 568L673 600L0 600L0 568L0 568L0 537L0 537L0 505L0 505L0 474L0 474L0 442L0 442L0 411L0 411L0 379L0 379L0 347L0 347L0 316L0 316L0 284L0 284L0 253L0 253L0 221L0 221L0 189L0 189L0 158L0 158L0 126L0 126L0 95L0 95L0 63L0 63L0 32L0 32L0 0L0 0Z"
        fill="#260300"></path>
    <path
        d="M626 0L627 0L627 32L620 32L620 63L588 63L588 95L555 95L555 126L437 126L437 158L531 158L531 189L635 189L635 221L575 221L575 253L493 253L493 284L571 284L571 316L475 316L475 347L618 347L618 379L616 379L616 411L598 411L598 442L466 442L466 474L616 474L616 505L479 505L479 537L498 537L498 568L503 568L503 600L0 600L0 568L0 568L0 537L0 537L0 505L0 505L0 474L0 474L0 442L0 442L0 411L0 411L0 379L0 379L0 347L0 347L0 316L0 316L0 284L0 284L0 253L0 253L0 221L0 221L0 189L0 189L0 158L0 158L0 126L0 126L0 95L0 95L0 63L0 63L0 32L0 32L0 0L0 0Z"
        fill="#2a0501"></path>
    <path
        d="M517 0L364 0L364 32L488 32L488 63L436 63L436 95L464 95L464 126L387 126L387 158L536 158L536 189L338 189L338 221L416 221L416 253L521 253L521 284L464 284L464 316L390 316L390 347L383 347L383 379L510 379L510 411L379 411L379 442L529 442L529 474L332 474L332 505L441 505L441 537L449 537L449 568L359 568L359 600L0 600L0 568L0 568L0 537L0 537L0 505L0 505L0 474L0 474L0 442L0 442L0 411L0 411L0 379L0 379L0 347L0 347L0 316L0 316L0 284L0 284L0 253L0 253L0 221L0 221L0 189L0 189L0 158L0 158L0 126L0 126L0 95L0 95L0 63L0 63L0 32L0 32L0 0L0 0Z"
        fill="#2e0501"></path>
    <path
        d="M322 0L289 0L289 32L291 32L291 63L375 63L375 95L320 95L320 126L381 126L381 158L266 158L266 189L239 189L239 221L336 221L336 253L383 253L383 284L255 284L255 316L394 316L394 347L246 347L246 379L232 379L232 411L307 411L307 442L365 442L365 474L230 474L230 505L397 505L397 537L311 537L311 568L348 568L348 600L0 600L0 568L0 568L0 537L0 537L0 505L0 505L0 474L0 474L0 442L0 442L0 411L0 411L0 379L0 379L0 347L0 347L0 316L0 316L0 284L0 284L0 253L0 253L0 221L0 221L0 189L0 189L0 158L0 158L0 126L0 126L0 95L0 95L0 63L0 63L0 32L0 32L0 0L0 0Z"
        fill="#320501"></path>
    <path
        d="M235 0L172 0L172 32L247 32L247 63L266 63L266 95L167 95L167 126L214 126L214 158L292 158L292 189L262 189L262 221L195 221L195 253L227 253L227 284L135 284L135 316L293 316L293 347L279 347L279 379L152 379L152 411L205 411L205 442L209 442L209 474L263 474L263 505L234 505L234 537L217 537L217 568L226 568L226 600L0 600L0 568L0 568L0 537L0 537L0 505L0 505L0 474L0 474L0 442L0 442L0 411L0 411L0 379L0 379L0 347L0 347L0 316L0 316L0 284L0 284L0 253L0 253L0 221L0 221L0 189L0 189L0 158L0 158L0 126L0 126L0 95L0 95L0 63L0 63L0 32L0 32L0 0L0 0Z"
        fill="#370401"></path>
    <path
        d="M68 0L144 0L144 32L103 32L103 63L197 63L197 95L177 95L177 126L198 126L198 158L165 158L165 189L35 189L35 221L37 221L37 253L142 253L142 284L66 284L66 316L60 316L60 347L154 347L154 379L38 379L38 411L183 411L183 442L195 442L195 474L154 474L154 505L24 505L24 537L76 537L76 568L148 568L148 600L0 600L0 568L0 568L0 537L0 537L0 505L0 505L0 474L0 474L0 442L0 442L0 411L0 411L0 379L0 379L0 347L0 347L0 316L0 316L0 284L0 284L0 253L0 253L0 221L0 221L0 189L0 189L0 158L0 158L0 126L0 126L0 95L0 95L0 63L0 63L0 32L0 32L0 0L0 0Z"
        fill="#3b0300"></path>
</svg>