<svg id="visual" viewBox="0 0 900 600" width="900" height="600" xmlns="http://www.w3.org/2000/svg"
    xmlns:xlink="http://www.w3.org/1999/xlink" version="1.1">
    <rect x="0" y="0" width="900" height="600" fill="#1c0000"></rect>
    <path
        d="M0 80L47 80L47 48L95 48L95 111L142 111L142 155L189 155L189 150L237 150L237 65L284 65L284 76L332 76L332 157L379 157L379 124L426 124L426 151L474 151L474 47L521 47L521 83L568 83L568 112L616 112L616 63L663 63L663 75L711 75L711 38L758 38L758 52L805 52L805 160L853 160L853 172L900 172L900 105L900 601L900 601L853 601L853 601L805 601L805 601L758 601L758 601L711 601L711 601L663 601L663 601L616 601L616 601L568 601L568 601L521 601L521 601L474 601L474 601L426 601L426 601L379 601L379 601L332 601L332 601L284 601L284 601L237 601L237 601L189 601L189 601L142 601L142 601L95 601L95 601L47 601L47 601L0 601Z"
        fill="#220200"></path>
    <path
        d="M0 229L47 229L47 194L95 194L95 219L142 219L142 199L189 199L189 124L237 124L237 139L284 139L284 223L332 223L332 183L379 183L379 145L426 145L426 217L474 217L474 223L521 223L521 152L568 152L568 136L616 136L616 137L663 137L663 150L711 150L711 216L758 216L758 182L805 182L805 242L853 242L853 181L900 181L900 151L900 601L900 601L853 601L853 601L805 601L805 601L758 601L758 601L711 601L711 601L663 601L663 601L616 601L616 601L568 601L568 601L521 601L521 601L474 601L474 601L426 601L426 601L379 601L379 601L332 601L332 601L284 601L284 601L237 601L237 601L189 601L189 601L142 601L142 601L95 601L95 601L47 601L47 601L0 601Z"
        fill="#260300"></path>
    <path
        d="M0 183L47 183L47 181L95 181L95 187L142 187L142 208L189 208L189 230L237 230L237 308L284 308L284 246L332 246L332 177L379 177L379 216L426 216L426 271L474 271L474 219L521 219L521 283L568 283L568 188L616 188L616 189L663 189L663 201L711 201L711 289L758 289L758 189L805 189L805 280L853 280L853 268L900 268L900 265L900 601L900 601L853 601L853 601L805 601L805 601L758 601L758 601L711 601L711 601L663 601L663 601L616 601L616 601L568 601L568 601L521 601L521 601L474 601L474 601L426 601L426 601L379 601L379 601L332 601L332 601L284 601L284 601L237 601L237 601L189 601L189 601L142 601L142 601L95 601L95 601L47 601L47 601L0 601Z"
        fill="#2a0501"></path>
    <path
        d="M0 255L47 255L47 357L95 357L95 274L142 274L142 309L189 309L189 290L237 290L237 342L284 342L284 242L332 242L332 374L379 374L379 322L426 322L426 252L474 252L474 291L521 291L521 339L568 339L568 344L616 344L616 259L663 259L663 347L711 347L711 247L758 247L758 378L805 378L805 306L853 306L853 301L900 301L900 360L900 601L900 601L853 601L853 601L805 601L805 601L758 601L758 601L711 601L711 601L663 601L663 601L616 601L616 601L568 601L568 601L521 601L521 601L474 601L474 601L426 601L426 601L379 601L379 601L332 601L332 601L284 601L284 601L237 601L237 601L189 601L189 601L142 601L142 601L95 601L95 601L47 601L47 601L0 601Z"
        fill="#2e0501"></path>
    <path
        d="M0 385L47 385L47 407L95 407L95 406L142 406L142 350L189 350L189 387L237 387L237 346L284 346L284 423L332 423L332 441L379 441L379 376L426 376L426 344L474 344L474 430L521 430L521 337L568 337L568 436L616 436L616 445L663 445L663 395L711 395L711 357L758 357L758 446L805 446L805 335L853 335L853 392L900 392L900 368L900 601L900 601L853 601L853 601L805 601L805 601L758 601L758 601L711 601L711 601L663 601L663 601L616 601L616 601L568 601L568 601L521 601L521 601L474 601L474 601L426 601L426 601L379 601L379 601L332 601L332 601L284 601L284 601L237 601L237 601L189 601L189 601L142 601L142 601L95 601L95 601L47 601L47 601L0 601Z"
        fill="#320501"></path>
    <path
        d="M0 443L47 443L47 485L95 485L95 435L142 435L142 422L189 422L189 488L237 488L237 457L284 457L284 405L332 405L332 425L379 425L379 470L426 470L426 448L474 448L474 509L521 509L521 404L568 404L568 414L616 414L616 498L663 498L663 463L711 463L711 460L758 460L758 425L805 425L805 444L853 444L853 455L900 455L900 449L900 601L900 601L853 601L853 601L805 601L805 601L758 601L758 601L711 601L711 601L663 601L663 601L616 601L616 601L568 601L568 601L521 601L521 601L474 601L474 601L426 601L426 601L379 601L379 601L332 601L332 601L284 601L284 601L237 601L237 601L189 601L189 601L142 601L142 601L95 601L95 601L47 601L47 601L0 601Z"
        fill="#370401"></path>
    <path
        d="M0 554L47 554L47 503L95 503L95 531L142 531L142 468L189 468L189 482L237 482L237 468L284 468L284 490L332 490L332 576L379 576L379 575L426 575L426 505L474 505L474 556L521 556L521 559L568 559L568 497L616 497L616 574L663 574L663 478L711 478L711 470L758 470L758 497L805 497L805 584L853 584L853 549L900 549L900 501L900 601L900 601L853 601L853 601L805 601L805 601L758 601L758 601L711 601L711 601L663 601L663 601L616 601L616 601L568 601L568 601L521 601L521 601L474 601L474 601L426 601L426 601L379 601L379 601L332 601L332 601L284 601L284 601L237 601L237 601L189 601L189 601L142 601L142 601L95 601L95 601L47 601L47 601L0 601Z"
        fill="#3b0300"></path>
</svg>