<svg id="visual" viewBox="0 0 900 600" width="900" height="600" xmlns="http://www.w3.org/2000/svg"
    xmlns:xlink="http://www.w3.org/1999/xlink" version="1.1">
    <g stroke-width="1" stroke-linejoin="bevel">
        <path d="M463 319L406 416L466 381Z" fill="#260200" stroke="#260200"></path>
        <path d="M463 319L396 288L406 416Z" fill="#210100" stroke="#210100"></path>
        <path d="M396 288L301 304L406 416Z" fill="#1f0100" stroke="#1f0100"></path>
        <path d="M463 319L415 234L396 288Z" fill="#270200" stroke="#270200"></path>
        <path d="M396 288L276 231L301 304Z" fill="#1b0100" stroke="#1b0100"></path>
        <path d="M406 416L472 468L466 381Z" fill="#1d0100" stroke="#1d0100"></path>
        <path d="M612 293L468 211L463 319Z" fill="#190000" stroke="#190000"></path>
        <path d="M301 304L279 409L406 416Z" fill="#260200" stroke="#260200"></path>
        <path d="M406 416L409 508L472 468Z" fill="#210100" stroke="#210100"></path>
        <path d="M463 319L468 211L415 234Z" fill="#240200" stroke="#240200"></path>
        <path d="M614 392L463 319L466 381Z" fill="#220100" stroke="#220100"></path>
        <path d="M290 465L409 508L406 416Z" fill="#140000" stroke="#140000"></path>
        <path d="M279 409L290 465L406 416Z" fill="#170000" stroke="#170000"></path>
        <path d="M299 118L276 231L415 234Z" fill="#270200" stroke="#270200"></path>
        <path d="M415 234L276 231L396 288Z" fill="#1d0100" stroke="#1d0100"></path>
        <path d="M301 304L222 287L279 409Z" fill="#260200" stroke="#260200"></path>
        <path d="M276 231L222 287L301 304Z" fill="#190000" stroke="#190000"></path>
        <path d="M279 409L187 477L290 465Z" fill="#1b0100" stroke="#1b0100"></path>
        <path d="M618 465L614 392L472 468Z" fill="#210100" stroke="#210100"></path>
        <path d="M472 468L614 392L466 381Z" fill="#1d0100" stroke="#1d0100"></path>
        <path d="M614 392L612 293L463 319Z" fill="#220100" stroke="#220100"></path>
        <path d="M492 121L436 138L468 211Z" fill="#260200" stroke="#260200"></path>
        <path d="M468 211L436 138L415 234Z" fill="#1f0100" stroke="#1f0100"></path>
        <path d="M568 600L618 465L472 468Z" fill="#140000" stroke="#140000"></path>
        <path d="M702 285L637 188L612 293Z" fill="#260200" stroke="#260200"></path>
        <path d="M591 126L492 121L468 211Z" fill="#260200" stroke="#260200"></path>
        <path d="M266 600L408 600L409 508Z" fill="#240200" stroke="#240200"></path>
        <path d="M409 508L466 600L472 468Z" fill="#190000" stroke="#190000"></path>
        <path d="M222 287L173 432L279 409Z" fill="#240200" stroke="#240200"></path>
        <path d="M290 465L266 600L409 508Z" fill="#220100" stroke="#220100"></path>
        <path d="M408 600L466 600L409 508Z" fill="#140000" stroke="#140000"></path>
        <path d="M173 432L187 477L279 409Z" fill="#210100" stroke="#210100"></path>
        <path d="M436 138L299 118L415 234Z" fill="#190000" stroke="#190000"></path>
        <path d="M276 231L195 189L222 287Z" fill="#1b0100" stroke="#1b0100"></path>
        <path d="M411 0L299 118L436 138Z" fill="#190000" stroke="#190000"></path>
        <path d="M299 118L195 189L276 231Z" fill="#140000" stroke="#140000"></path>
        <path d="M222 287L127 361L173 432Z" fill="#190000" stroke="#190000"></path>
        <path d="M702 285L612 293L614 392Z" fill="#220100" stroke="#220100"></path>
        <path d="M612 293L637 188L468 211Z" fill="#260200" stroke="#260200"></path>
        <path d="M114 330L127 361L222 287Z" fill="#1d0100" stroke="#1d0100"></path>
        <path d="M173 432L105 537L187 477Z" fill="#240200" stroke="#240200"></path>
        <path d="M225 600L266 600L290 465Z" fill="#1b0100" stroke="#1b0100"></path>
        <path d="M710 527L691 409L618 465Z" fill="#1f0100" stroke="#1f0100"></path>
        <path d="M618 465L691 409L614 392Z" fill="#140000" stroke="#140000"></path>
        <path d="M637 188L591 126L468 211Z" fill="#190000" stroke="#190000"></path>
        <path d="M466 600L568 600L472 468Z" fill="#260200" stroke="#260200"></path>
        <path d="M195 189L114 330L222 287Z" fill="#170000" stroke="#170000"></path>
        <path d="M691 409L702 285L614 392Z" fill="#220100" stroke="#220100"></path>
        <path d="M187 477L225 600L290 465Z" fill="#1b0100" stroke="#1b0100"></path>
        <path d="M105 537L225 600L187 477Z" fill="#1f0100" stroke="#1f0100"></path>
        <path d="M105 537L173 432L0 426Z" fill="#270200" stroke="#270200"></path>
        <path d="M702 285L689 163L637 188Z" fill="#270200" stroke="#270200"></path>
        <path d="M637 188L695 132L591 126Z" fill="#240200" stroke="#240200"></path>
        <path d="M294 0L173 102L299 118Z" fill="#210100" stroke="#210100"></path>
        <path d="M299 118L173 102L195 189Z" fill="#210100" stroke="#210100"></path>
        <path d="M195 189L80 194L114 330Z" fill="#190000" stroke="#190000"></path>
        <path d="M411 0L436 138L470 0Z" fill="#260200" stroke="#260200"></path>
        <path d="M677 600L710 527L618 465Z" fill="#1f0100" stroke="#1f0100"></path>
        <path d="M691 409L784 325L702 285Z" fill="#210100" stroke="#210100"></path>
        <path d="M470 0L492 121L619 0Z" fill="#1f0100" stroke="#1f0100"></path>
        <path d="M470 0L436 138L492 121Z" fill="#1b0100" stroke="#1b0100"></path>
        <path d="M0 426L173 432L127 361Z" fill="#260200" stroke="#260200"></path>
        <path d="M619 0L492 121L591 126Z" fill="#1d0100" stroke="#1d0100"></path>
        <path d="M775 163L695 132L689 163Z" fill="#270200" stroke="#270200"></path>
        <path d="M689 163L695 132L637 188Z" fill="#170000" stroke="#170000"></path>
        <path d="M568 600L677 600L618 465Z" fill="#1f0100" stroke="#1f0100"></path>
        <path d="M173 102L80 194L195 189Z" fill="#260200" stroke="#260200"></path>
        <path d="M114 330L0 336L127 361Z" fill="#1f0100" stroke="#1f0100"></path>
        <path d="M411 0L294 0L299 118Z" fill="#270200" stroke="#270200"></path>
        <path d="M833 439L784 325L691 409Z" fill="#1f0100" stroke="#1f0100"></path>
        <path d="M702 285L775 163L689 163Z" fill="#1f0100" stroke="#1f0100"></path>
        <path d="M105 537L126 600L225 600Z" fill="#1b0100" stroke="#1b0100"></path>
        <path d="M80 194L0 336L114 330Z" fill="#240200" stroke="#240200"></path>
        <path d="M105 537L0 600L126 600Z" fill="#190000" stroke="#190000"></path>
        <path d="M695 132L619 0L591 126Z" fill="#240200" stroke="#240200"></path>
        <path d="M784 325L775 163L702 285Z" fill="#1d0100" stroke="#1d0100"></path>
        <path d="M695 132L679 0L619 0Z" fill="#260200" stroke="#260200"></path>
        <path d="M764 600L805 479L710 527Z" fill="#220100" stroke="#220100"></path>
        <path d="M710 527L805 479L691 409Z" fill="#170000" stroke="#170000"></path>
        <path d="M900 162L835 122L775 163Z" fill="#1b0100" stroke="#1b0100"></path>
        <path d="M0 336L0 426L127 361Z" fill="#140000" stroke="#140000"></path>
        <path d="M294 0L184 0L173 102Z" fill="#270200" stroke="#270200"></path>
        <path d="M0 135L0 204L80 194Z" fill="#210100" stroke="#210100"></path>
        <path d="M80 194L0 204L0 336Z" fill="#1b0100" stroke="#1b0100"></path>
        <path d="M0 426L0 485L105 537Z" fill="#190000" stroke="#190000"></path>
        <path d="M805 479L833 439L691 409Z" fill="#260200" stroke="#260200"></path>
        <path d="M677 600L764 600L710 527Z" fill="#270200" stroke="#270200"></path>
        <path d="M900 483L900 428L833 439Z" fill="#140000" stroke="#140000"></path>
        <path d="M68 81L80 194L173 102Z" fill="#210100" stroke="#210100"></path>
        <path d="M98 0L68 81L173 102Z" fill="#1b0100" stroke="#1b0100"></path>
        <path d="M811 0L679 0L695 132Z" fill="#220100" stroke="#220100"></path>
        <path d="M68 81L0 135L80 194Z" fill="#1d0100" stroke="#1d0100"></path>
        <path d="M184 0L98 0L173 102Z" fill="#210100" stroke="#210100"></path>
        <path d="M68 81L0 0L0 135Z" fill="#210100" stroke="#210100"></path>
        <path d="M0 485L0 600L105 537Z" fill="#140000" stroke="#140000"></path>
        <path d="M900 162L775 163L784 325Z" fill="#260200" stroke="#260200"></path>
        <path d="M775 163L835 122L695 132Z" fill="#1d0100" stroke="#1d0100"></path>
        <path d="M900 428L900 327L833 439Z" fill="#1d0100" stroke="#1d0100"></path>
        <path d="M833 439L900 327L784 325Z" fill="#1d0100" stroke="#1d0100"></path>
        <path d="M900 483L833 439L805 479Z" fill="#190000" stroke="#190000"></path>
        <path d="M900 600L900 483L805 479Z" fill="#260200" stroke="#260200"></path>
        <path d="M900 327L900 162L784 325Z" fill="#260200" stroke="#260200"></path>
        <path d="M835 122L811 0L695 132Z" fill="#140000" stroke="#140000"></path>
        <path d="M900 0L811 0L835 122Z" fill="#210100" stroke="#210100"></path>
        <path d="M98 0L0 0L68 81Z" fill="#140000" stroke="#140000"></path>
        <path d="M900 162L900 118L835 122Z" fill="#220100" stroke="#220100"></path>
        <path d="M764 600L900 600L805 479Z" fill="#140000" stroke="#140000"></path>
        <path d="M900 118L900 0L835 122Z" fill="#270200" stroke="#270200"></path>
    </g>
</svg>