<svg id="visual" viewBox="0 0 900 600" width="900" height="600" xmlns="http://www.w3.org/2000/svg"
    xmlns:xlink="http://www.w3.org/1999/xlink" version="1.1">
    <rect x="0" y="0" width="900" height="600" fill="#140000e9"></rect>
    <defs>
        <linearGradient id="grad1_0" x1="33.3%" y1="0%" x2="100%" y2="100%">
            <stop offset="20%" stop-color="#2c0200" stop-opacity="1"></stop>
            <stop offset="80%" stop-color="#2c0200" stop-opacity="1"></stop>
        </linearGradient>
    </defs>
    <defs>
        <linearGradient id="grad1_1" x1="33.3%" y1="0%" x2="100%" y2="100%">
            <stop offset="20%" stop-color="#2c0200" stop-opacity="1"></stop>
            <stop offset="80%" stop-color="#140000" stop-opacity="1"></stop>
        </linearGradient>
    </defs>
    <defs>
        <linearGradient id="grad2_0" x1="0%" y1="0%" x2="66.7%" y2="100%">
            <stop offset="20%" stop-color="#2c0200" stop-opacity="1"></stop>
            <stop offset="80%" stop-color="#2c0200" stop-opacity="1"></stop>
        </linearGradient>
    </defs>
    <defs>
        <linearGradient id="grad2_1" x1="0%" y1="0%" x2="66.7%" y2="100%">
            <stop offset="20%" stop-color="#140000" stop-opacity="1"></stop>
            <stop offset="80%" stop-color="#2c0200" stop-opacity="1"></stop>
        </linearGradient>
    </defs>
    <g transform="translate(900, 0)">
        <path
            d="M0 459.7C-18.1 448.9 -36.2 438.1 -50.7 417.9C-65.3 397.8 -76.4 368.3 -85.9 348.6C-95.4 328.8 -103.3 318.7 -125.9 331.9C-148.5 345.2 -185.7 381.7 -191.9 365.7C-198.2 349.7 -173.4 281.2 -186.9 270.8C-200.4 260.3 -252.2 307.9 -284.5 321.1C-316.8 334.3 -329.6 313.3 -316.6 280.5C-303.6 247.7 -264.9 203.3 -273.2 188.6C-281.6 173.9 -337.1 188.8 -339.1 178C-341.1 167.2 -289.7 130.6 -313.2 118.8C-336.8 107 -435.4 120 -446.3 110C-457.3 100 -380.7 66.9 -368.3 44.7C-355.9 22.5 -407.8 11.3 -459.7 0L0 0Z"
            fill="#220100"></path>
        <path
            d="M0 229.9C-9 224.4 -18.1 219 -25.4 209C-32.7 198.9 -38.2 184.2 -43 174.3C-47.7 164.4 -51.7 159.4 -62.9 166C-74.2 172.6 -92.8 190.8 -96 182.8C-99.1 174.9 -86.7 140.6 -93.4 135.4C-100.2 130.2 -126.1 153.9 -142.2 160.6C-158.4 167.2 -164.8 156.6 -158.3 140.3C-151.8 123.9 -132.4 101.7 -136.6 94.3C-140.8 86.9 -168.6 94.4 -169.6 89C-170.6 83.6 -144.8 65.3 -156.6 59.4C-168.4 53.5 -217.7 60 -223.2 55C-228.7 50 -190.3 33.4 -184.1 22.4C-178 11.3 -203.9 5.6 -229.9 0L0 0Z"
            fill="#2c0200"></path>
    </g>
    <g transform="translate(0, 600)">
        <path
            d="M0 -459.7C13.5 -410.7 26.9 -361.7 43.2 -355.4C59.4 -349 78.3 -385.4 100 -405.9C121.8 -426.4 146.2 -431.1 152.5 -402.1C158.7 -373.1 146.7 -310.4 150.6 -286.9C154.5 -263.4 174.3 -279.2 206.8 -299.6C239.3 -320 284.4 -345 293.1 -330.8C301.8 -316.6 273.9 -263.2 264.2 -234.1C254.5 -205 263 -200.3 292.2 -201.7C321.4 -203 371.3 -210.5 376.3 -197.5C381.3 -184.5 341.3 -151.1 359 -136.2C376.8 -121.2 452.3 -124.6 446.3 -110C440.4 -95.4 352.9 -62.8 341.5 -41.5C330.1 -20.1 394.9 -10.1 459.7 0L0 0Z"
            fill="#220100"></path>
        <path
            d="M0 -229.9C6.7 -205.4 13.5 -180.9 21.6 -177.7C29.7 -174.5 39.2 -192.7 50 -202.9C60.9 -213.2 73.1 -215.5 76.2 -201C79.4 -186.5 73.3 -155.2 75.3 -143.4C77.2 -131.7 87.1 -139.6 103.4 -149.8C119.6 -160 142.2 -172.5 146.6 -165.4C150.9 -158.3 137 -131.6 132.1 -117C127.3 -102.5 131.5 -100.1 146.1 -100.8C160.7 -101.5 185.7 -105.2 188.2 -98.8C190.6 -92.3 170.6 -75.6 179.5 -68.1C188.4 -60.6 226.2 -62.3 223.2 -55C220.2 -47.7 176.4 -31.4 170.7 -20.7C165.1 -10.1 197.5 -5 229.9 0L0 0Z"
            fill="#2c0200"></path>
    </g>
</svg>