<svg
    id="visual"
    viewBox="0 0 900 600"
    xmlns="http://www.w3.org/2000/svg"
    xmlns:xlink="http://www.w3.org/1999/xlink"
    version="1.1"
    width="900"
    height="600"
    >
    <!--& THE OG FILL COLOR FOR 'rect' WAS: #171717 -->
    <rect
        x="0"
        y="0"
        width="900"
        height="600"
        fill="#100000a1">
    </rect>
    <g transform="translate(406.7978302071448 259.83765192885926)">
        <path
            d="M202.4 -312.3C283 -303.9 383.6 -291.7 419.3 -239C455.1 -186.3 426 -93.2 428.2 1.2C430.4 95.7 463.7 191.3 447.6 277.9C431.4 364.5 365.7 442.1 282.8 472.4C200 502.7 100 485.9 17.6 455.4C-64.8 425 -129.7 380.9 -185.1 334.8C-240.5 288.6 -286.5 240.3 -320 184.1C-353.4 128 -374.2 64 -362.1 7C-349.9 -50 -304.9 -100 -285 -179.7C-265.2 -259.4 -270.6 -368.7 -227.3 -398.7C-184 -428.7 -92 -379.3 -15.6 -352.4C60.8 -325.4 121.7 -320.7 202.4 -312.3"
            fill="#300200d9">
        </path>
    </g>
</svg>